<svg width="250" height="250" viewBox="0 0 250 250" fill="none" xmlns="http://www.w3.org/2000/svg">
<g clip-path="url(#clip0_1_2)">
<g filter="url(#filter0_f_1_2)">
<mask id="path-1-outside-1_1_2" maskUnits="userSpaceOnUse" x="8" y="118" width="234" height="124" fill="black">
<rect fill="white" x="8" y="118" width="234" height="124"/>
<path d="M235 125C235 139.445 232.155 153.749 226.627 167.095C221.099 180.441 212.996 192.567 202.782 202.782C192.567 212.996 180.441 221.099 167.095 226.627C153.749 232.155 139.445 235 125 235C110.555 235 96.2506 232.155 82.9048 226.627C69.559 221.099 57.4327 212.996 47.2182 202.782C37.0038 192.567 28.9013 180.441 23.3732 167.095C17.8452 153.749 15 139.445 15 125L125 125L235 125Z"/>
</mask>
<path d="M235 125C235 139.445 232.155 153.749 226.627 167.095C221.099 180.441 212.996 192.567 202.782 202.782C192.567 212.996 180.441 221.099 167.095 226.627C153.749 232.155 139.445 235 125 235C110.555 235 96.2506 232.155 82.9048 226.627C69.559 221.099 57.4327 212.996 47.2182 202.782C37.0038 192.567 28.9013 180.441 23.3732 167.095C17.8452 153.749 15 139.445 15 125L125 125L235 125Z" fill="black"/>
<path d="M235 125C235 139.445 232.155 153.749 226.627 167.095C221.099 180.441 212.996 192.567 202.782 202.782C192.567 212.996 180.441 221.099 167.095 226.627C153.749 232.155 139.445 235 125 235C110.555 235 96.2506 232.155 82.9048 226.627C69.559 221.099 57.4327 212.996 47.2182 202.782C37.0038 192.567 28.9013 180.441 23.3732 167.095C17.8452 153.749 15 139.445 15 125L125 125L235 125Z" stroke="#FF2222" stroke-width="14" mask="url(#path-1-outside-1_1_2)"/>
</g>
<mask id="path-2-outside-2_1_2" maskUnits="userSpaceOnUse" x="13" y="123" width="224" height="114" fill="black">
<rect fill="white" x="13" y="123" width="224" height="114"/>
<path d="M235 125C235 154.174 223.411 182.153 202.782 202.782C182.153 223.411 154.174 235 125 235C95.8262 235 67.8473 223.411 47.2183 202.782C26.5893 182.153 15 154.174 15 125L125 125H235Z"/>
</mask>
<path d="M235 125C235 154.174 223.411 182.153 202.782 202.782C182.153 223.411 154.174 235 125 235C95.8262 235 67.8473 223.411 47.2183 202.782C26.5893 182.153 15 154.174 15 125L125 125H235Z" fill="black"/>
<path d="M235 125C235 154.174 223.411 182.153 202.782 202.782C182.153 223.411 154.174 235 125 235C95.8262 235 67.8473 223.411 47.2183 202.782C26.5893 182.153 15 154.174 15 125L125 125H235Z" stroke="#DD0000" stroke-width="4" mask="url(#path-2-outside-2_1_2)"/>
<g filter="url(#filter1_f_1_2)">
<mask id="path-3-outside-3_1_2" maskUnits="userSpaceOnUse" x="8" y="8" width="234" height="124" fill="black">
<rect fill="white" x="8" y="8" width="234" height="124"/>
<path d="M15 125C15 110.555 17.8452 96.2506 23.3733 82.9048C28.9013 69.559 37.0038 57.4327 47.2183 47.2183C57.4327 37.0038 69.559 28.9013 82.9048 23.3733C96.2506 17.8452 110.555 15 125 15C139.445 15 153.749 17.8452 167.095 23.3733C180.441 28.9013 192.567 37.0038 202.782 47.2183C212.996 57.4327 221.099 69.559 226.627 82.9048C232.155 96.2506 235 110.555 235 125L125 125L15 125Z"/>
</mask>
<path d="M15 125C15 110.555 17.8452 96.2506 23.3733 82.9048C28.9013 69.559 37.0038 57.4327 47.2183 47.2183C57.4327 37.0038 69.559 28.9013 82.9048 23.3733C96.2506 17.8452 110.555 15 125 15C139.445 15 153.749 17.8452 167.095 23.3733C180.441 28.9013 192.567 37.0038 202.782 47.2183C212.996 57.4327 221.099 69.559 226.627 82.9048C232.155 96.2506 235 110.555 235 125L125 125L15 125Z" fill="black"/>
<path d="M15 125C15 110.555 17.8452 96.2506 23.3733 82.9048C28.9013 69.559 37.0038 57.4327 47.2183 47.2183C57.4327 37.0038 69.559 28.9013 82.9048 23.3733C96.2506 17.8452 110.555 15 125 15C139.445 15 153.749 17.8452 167.095 23.3733C180.441 28.9013 192.567 37.0038 202.782 47.2183C212.996 57.4327 221.099 69.559 226.627 82.9048C232.155 96.2506 235 110.555 235 125L125 125L15 125Z" stroke="#7667FF" stroke-width="14" mask="url(#path-3-outside-3_1_2)"/>
</g>
<mask id="path-4-outside-4_1_2" maskUnits="userSpaceOnUse" x="13" y="13" width="224" height="114" fill="black">
<rect fill="white" x="13" y="13" width="224" height="114"/>
<path d="M15 125C15 95.8262 26.5893 67.8473 47.2183 47.2183C67.8473 26.5893 95.8262 15 125 15C154.174 15 182.153 26.5892 202.782 47.2182C223.411 67.8472 235 95.8262 235 125L125 125L15 125Z"/>
</mask>
<path d="M15 125C15 95.8262 26.5893 67.8473 47.2183 47.2183C67.8473 26.5893 95.8262 15 125 15C154.174 15 182.153 26.5892 202.782 47.2182C223.411 67.8472 235 95.8262 235 125L125 125L15 125Z" fill="black"/>
<path d="M15 125C15 95.8262 26.5893 67.8473 47.2183 47.2183C67.8473 26.5893 95.8262 15 125 15C154.174 15 182.153 26.5892 202.782 47.2182C223.411 67.8472 235 95.8262 235 125L125 125L15 125Z" stroke="#2F02D0" stroke-width="4" mask="url(#path-4-outside-4_1_2)"/>
<circle cx="125" cy="125" r="110" fill="#000210"/>
<mask id="path-6-outside-5_1_2" maskUnits="userSpaceOnUse" x="71" y="46" width="126" height="158" fill="black">
<rect fill="white" x="71" y="46" width="126" height="158"/>
<path d="M77.0085 198V52.5455H137.094C147.984 52.5455 157.383 54.6761 165.29 58.9375C173.244 63.1515 179.376 69.0464 183.685 76.6222C187.993 84.1506 190.148 92.91 190.148 102.901C190.148 112.938 187.946 121.722 183.543 129.25C179.187 136.731 172.96 142.531 164.864 146.651C156.767 150.77 147.155 152.83 136.028 152.83H98.9545V125.131H129.494C134.797 125.131 139.224 124.207 142.776 122.361C146.374 120.514 149.097 117.934 150.943 114.619C152.79 111.258 153.713 107.351 153.713 102.901C153.713 98.4025 152.79 94.5199 150.943 91.2528C149.097 87.9384 146.374 85.3816 142.776 83.5824C139.177 81.7831 134.75 80.8835 129.494 80.8835H112.165V198H77.0085Z"/>
</mask>
<path d="M77.0085 198V52.5455H137.094C147.984 52.5455 157.383 54.6761 165.29 58.9375C173.244 63.1515 179.376 69.0464 183.685 76.6222C187.993 84.1506 190.148 92.91 190.148 102.901C190.148 112.938 187.946 121.722 183.543 129.25C179.187 136.731 172.96 142.531 164.864 146.651C156.767 150.77 147.155 152.83 136.028 152.83H98.9545V125.131H129.494C134.797 125.131 139.224 124.207 142.776 122.361C146.374 120.514 149.097 117.934 150.943 114.619C152.79 111.258 153.713 107.351 153.713 102.901C153.713 98.4025 152.79 94.5199 150.943 91.2528C149.097 87.9384 146.374 85.3816 142.776 83.5824C139.177 81.7831 134.75 80.8835 129.494 80.8835H112.165V198H77.0085Z" fill="white"/>
<path d="M77.0085 198H71.0085V204H77.0085V198ZM77.0085 52.5455V46.5455H71.0085V52.5455H77.0085ZM165.29 58.9375L162.443 64.2193L162.462 64.2295L162.481 64.2395L165.29 58.9375ZM183.685 76.6222L178.469 79.5884L178.473 79.5955L178.477 79.6025L183.685 76.6222ZM183.543 129.25L178.363 126.221L178.358 126.231L183.543 129.25ZM164.864 146.651L167.584 151.998L167.584 151.998L164.864 146.651ZM98.9545 152.83H92.9545V158.83H98.9545V152.83ZM98.9545 125.131V119.131H92.9545V125.131H98.9545ZM142.776 122.361L140.036 117.023L140.022 117.03L140.007 117.037L142.776 122.361ZM150.943 114.619L156.185 117.54L156.193 117.524L156.202 117.508L150.943 114.619ZM150.943 91.2528L145.702 94.1731L145.711 94.1891L145.72 94.2052L150.943 91.2528ZM142.776 83.5824L140.092 88.949L140.092 88.949L142.776 83.5824ZM112.165 80.8835V74.8835H106.165V80.8835H112.165ZM112.165 198V204H118.165V198H112.165ZM77.0085 198H83.0085V52.5455H77.0085H71.0085V198H77.0085ZM77.0085 52.5455V58.5455H137.094V52.5455V46.5455H77.0085V52.5455ZM137.094 52.5455V58.5455C147.2 58.5455 155.578 60.5196 162.443 64.2193L165.29 58.9375L168.136 53.6557C159.187 48.8327 148.768 46.5455 137.094 46.5455V52.5455ZM165.29 58.9375L162.481 64.2395C169.463 67.938 174.744 73.038 178.469 79.5884L183.685 76.6222L188.9 73.6559C184.008 65.0548 177.026 58.365 168.099 53.6355L165.29 58.9375ZM183.685 76.6222L178.477 79.6025C182.192 86.0935 184.148 93.7949 184.148 102.901H190.148H196.148C196.148 92.0252 193.795 82.2076 188.892 73.6418L183.685 76.6222ZM190.148 102.901H184.148C184.148 112.037 182.153 119.743 178.363 126.221L183.543 129.25L188.722 132.279C193.739 123.701 196.148 113.84 196.148 102.901H190.148ZM183.543 129.25L178.358 126.231C174.611 132.664 169.265 137.68 162.143 141.303L164.864 146.651L167.584 151.998C176.656 147.383 183.762 140.798 188.728 132.269L183.543 129.25ZM164.864 146.651L162.143 141.303C155.058 144.908 146.419 146.83 136.028 146.83V152.83V158.83C147.892 158.83 158.476 156.632 167.584 151.998L164.864 146.651ZM136.028 152.83V146.83H98.9545V152.83V158.83H136.028V152.83ZM98.9545 152.83H104.955V125.131H98.9545H92.9545V152.83H98.9545ZM98.9545 125.131V131.131H129.494V125.131V119.131H98.9545V125.131ZM129.494 125.131V131.131C135.46 131.131 140.906 130.096 145.544 127.684L142.776 122.361L140.007 117.037C137.543 118.319 134.135 119.131 129.494 119.131V125.131ZM142.776 122.361L145.515 127.699C150.095 125.349 153.722 121.959 156.185 117.54L150.943 114.619L145.702 111.699C144.471 113.908 142.653 115.68 140.036 117.023L142.776 122.361ZM150.943 114.619L156.202 117.508C158.608 113.128 159.713 108.198 159.713 102.901H153.713H147.713C147.713 106.505 146.972 109.387 145.684 111.731L150.943 114.619ZM153.713 102.901H159.713C159.713 97.5732 158.615 92.6316 156.167 88.3005L150.943 91.2528L145.72 94.2052C146.965 96.4082 147.713 99.2317 147.713 102.901H153.713ZM150.943 91.2528L156.185 88.3326C153.714 83.8989 150.068 80.5203 145.459 78.2158L142.776 83.5824L140.092 88.949C142.68 90.2429 144.479 91.978 145.702 94.1731L150.943 91.2528ZM142.776 83.5824L145.459 78.2158C140.812 75.8925 135.407 74.8835 129.494 74.8835V80.8835V86.8835C134.093 86.8835 137.542 87.6738 140.092 88.949L142.776 83.5824ZM129.494 80.8835V74.8835H112.165V80.8835V86.8835H129.494V80.8835ZM112.165 80.8835H106.165V198H112.165H118.165V80.8835H112.165ZM112.165 198V192H77.0085V198V204H112.165V198Z" fill="#061157" mask="url(#path-6-outside-5_1_2)"/>
<mask id="mask0_1_2" style="mask-type:alpha" maskUnits="userSpaceOnUse" x="77" y="52" width="114" height="146">
<path d="M77.0085 198V52.5455H137.094C147.984 52.5455 157.383 54.6761 165.29 58.9375C173.244 63.1515 179.376 69.0464 183.685 76.6222C187.993 84.1506 190.148 92.91 190.148 102.901C190.148 112.938 187.946 121.722 183.543 129.25C179.187 136.731 172.96 142.531 164.864 146.651C156.767 150.77 147.155 152.83 136.028 152.83H98.9545V125.131H129.494C134.797 125.131 139.224 124.207 142.776 122.361C146.374 120.514 149.097 117.934 150.943 114.619C152.79 111.258 153.713 107.351 153.713 102.901C153.713 98.4025 152.79 94.5199 150.943 91.2528C149.097 87.9384 146.374 85.3816 142.776 83.5824C139.177 81.7831 134.75 80.8835 129.494 80.8835H112.165V198H77.0085Z" fill="white"/>
</mask>
<g mask="url(#mask0_1_2)">
<rect x="77" y="150" width="40" height="58" fill="#0BD800"/>
<rect x="77" y="96" width="40" height="58" fill="#000BD8"/>
<rect x="77" y="38" width="40" height="58" fill="#FFF705"/>
<rect x="146" y="69" width="57" height="90" fill="white"/>
<rect x="112" y="159" width="34" height="80" transform="rotate(-90 112 159)" fill="#FF2226"/>
<rect x="117" y="89" width="42" height="80" transform="rotate(-90 117 89)" fill="#FF9122"/>
</g>
</g>
<defs>
<filter id="filter0_f_1_2" x="-2.3" y="107.7" width="254.6" height="144.6" filterUnits="userSpaceOnUse" color-interpolation-filters="sRGB">
<feFlood flood-opacity="0" result="BackgroundImageFix"/>
<feBlend mode="normal" in="SourceGraphic" in2="BackgroundImageFix" result="shape"/>
<feGaussianBlur stdDeviation="5.15" result="effect1_foregroundBlur_1_2"/>
</filter>
<filter id="filter1_f_1_2" x="-2.3" y="-2.3" width="254.6" height="144.6" filterUnits="userSpaceOnUse" color-interpolation-filters="sRGB">
<feFlood flood-opacity="0" result="BackgroundImageFix"/>
<feBlend mode="normal" in="SourceGraphic" in2="BackgroundImageFix" result="shape"/>
<feGaussianBlur stdDeviation="5.15" result="effect1_foregroundBlur_1_2"/>
</filter>
<clipPath id="clip0_1_2">
<rect width="250" height="250" fill="white"/>
</clipPath>
</defs>
</svg>
